<?xml version="1.0" encoding="UTF-8"?>
<svg viewBox="0 0 107.56057 104.09464" xmlns="http://www.w3.org/2000/svg" xmlns:xlink="http://www.w3.org/1999/xlink">
 <defs>
  <linearGradient id="c">
   <stop stop-color="#729fcf" offset="0"/>
   <stop stop-color="#3465a4" offset="1"/>
  </linearGradient>
  <linearGradient id="b">
   <stop stop-color="#fff" offset="0"/>
   <stop stop-color="#fff" stop-opacity="0" offset="1"/>
  </linearGradient>
  <radialGradient id="a" cx="24.837" cy="36.421" r="15.645" gradientTransform="matrix(1 0 0 .53672 0 16.873)" gradientUnits="userSpaceOnUse">
   <stop offset="0"/>
   <stop stop-opacity="0" offset="1"/>
  </radialGradient>
  <radialGradient id="k" cx="19.701" cy="2.8969" r="17.171" gradientTransform="matrix(2.0467 0 0 1.5576 -55.546 -29.723)" gradientUnits="userSpaceOnUse" xlink:href="#b"/>
  <radialGradient id="j" cx="22.292" cy="32.798" r="16.956" gradientTransform="matrix(.84302 0 0 1.0202 -31.528 -31.793)" gradientUnits="userSpaceOnUse" xlink:href="#c"/>
  <radialGradient id="i" cx="24.538" cy=".40011" r="17.171" gradientTransform="matrix(0 -2.0467 1.5576 0 2.2614 .80737)" gradientUnits="userSpaceOnUse" xlink:href="#b"/>
  <radialGradient id="h" cx="11.319" cy="22.455" r="16.956" gradientTransform="matrix(0 -.84302 1.0202 0 .10078 -23.539)" gradientUnits="userSpaceOnUse" xlink:href="#c"/>
  <radialGradient id="g" cx="19.701" cy="2.8969" r="17.171" gradientTransform="matrix(2.0467 0 0 1.5576 13.409 -29.653)" gradientUnits="userSpaceOnUse" xlink:href="#b"/>
  <radialGradient id="f" cx="22.292" cy="32.798" r="16.956" gradientTransform="matrix(.84302 0 0 1.0202 37.427 -31.723)" gradientUnits="userSpaceOnUse" xlink:href="#c"/>
  <radialGradient id="e" cx="15.987" cy="1.535" r="17.171" gradientTransform="matrix(0 2.0467 1.5576 0 2.3811 -22.965)" gradientUnits="userSpaceOnUse" xlink:href="#b"/>
  <radialGradient id="d" cx="35.293" cy="20.494" r="16.956" gradientTransform="matrix(0 .84302 -1.0202 0 45.89 1.3815)" gradientUnits="userSpaceOnUse" xlink:href="#c"/>
 </defs>
 <g transform="translate(31.293 61.126)">
  <path transform="matrix(1.2145 0 0 .59546 -6.6957 16.281)" d="m40.482 36.421a15.645 8.3969 0 1 1 -31.289 0 15.645 8.3969 0 1 1 31.289 0z" fill="url(#a)" fill-rule="evenodd" opacity=".20455"/>
  <path d="m31.978 5.4677-18.005 0.00391v12.992l-7.9954 0.00781 17.145 19.997 16.846-19.998-7.9959-0.00379 0.0053-12.999z" fill="url(#d)" fill-rule="evenodd" stroke="#183868" stroke-linecap="round" stroke-linejoin="round" stroke-miterlimit="10"/>
  <path d="m7.0668 18.974 7.4064-0.01172-0.00268-12.993 15.379 0.00915c-0.76992 18.341-10.723 10.993-15.382 21.647l-7.4006-8.6515z" fill="url(#e)" fill-rule="evenodd" opacity=".50802"/>
  <path d="m30.976 6.4716-16.001-0.00391v12.993l-6.8168 0.01563 14.954 17.453 14.707-17.457-6.8399-0.00525-0.00269-12.995z" fill="none" opacity=".48128" stroke="#fff" stroke-miterlimit="10"/>
  <path transform="matrix(1.2712 0 0 1.2712 24.808 -48.207)" d="m40.482 36.421a15.645 8.3969 0 1 1 -31.289 0 15.645 8.3969 0 1 1 31.289 0z" fill="url(#a)" fill-rule="evenodd" opacity=".29947"/>
  <path d="m41.482-17.588v16.994h12.984v8.545l19.96-16.906-20.079-17.025v8.3975l-12.865-0.0053z" fill="url(#f)" fill-rule="evenodd" stroke="#183868" stroke-linecap="round" stroke-linejoin="round" stroke-miterlimit="10"/>
  <path d="m54.89-24.857v7.8065h-12.817v9.0407c17.75 2 16.634-7.4553 31.384-0.95529l-18.566-15.892z" fill="url(#g)" fill-rule="evenodd" opacity=".50802"/>
  <path d="m42.465-16.544v14.984h12.985v7.3952l17.478-14.796-17.494-14.78v7.2014l-12.969-0.0049z" fill="none" opacity=".48128" stroke="#fff" stroke-miterlimit="10"/>
  <path transform="matrix(-1.2712 0 0 1.2712 20.167 -48.453)" d="m40.482 36.421a15.645 8.3969 0 1 1 -31.289 0 15.645 8.3969 0 1 1 31.289 0z" fill="url(#a)" fill-rule="evenodd" opacity=".29947"/>
  <path d="m3.4626-17.678v16.994h-12.953v8.4825l-19.96-17 19.954-17.244v8.7725l12.959-0.0053z" fill="url(#j)" fill-rule="evenodd" stroke="#183868" stroke-linecap="round" stroke-linejoin="round" stroke-miterlimit="10"/>
  <path d="m-10.039-25.197v8.0565h12.942v8.8845c-16.75-6.25-16.134 5.2947-31.384-0.95529l18.441-15.986z" fill="url(#k)" fill-rule="evenodd" opacity=".50802"/>
  <path d="m2.4478-16.633v14.922h-12.985v7.3014l-17.322-14.796 17.338-14.905v7.4826l12.969-0.0049z" fill="none" opacity=".48128" stroke="#fff" stroke-miterlimit="10"/>
  <path transform="matrix(1.2145 0 0 .59546 -6.6695 -49.813)" d="m40.482 36.421a15.645 8.3969 0 1 1 -31.289 0 15.645 8.3969 0 1 1 31.289 0z" fill="url(#a)" fill-rule="evenodd" opacity=".29947"/>
  <path d="m13.986-27.625h17.978v-12.953h8.0305l-17.125-20.048-16.846 19.99 7.9685 0.06629-0.0053 12.944z" fill="url(#h)" fill-rule="evenodd" stroke="#183868" stroke-linecap="round" stroke-linejoin="round" stroke-miterlimit="10"/>
  <path d="m7.0799-41.093h7.4103l0.0666 6.5618c5.6556-11 15.993-8.8444 16.594-15.628l-8.2898-9.5447-15.781 18.611z" fill="url(#i)" fill-rule="evenodd" opacity=".50802"/>
  <path d="m15.097-28.625h15.9v-12.993h6.809l-14.95-17.437-14.707 17.48 6.8204-0.0221 0.12769 12.972z" fill="none" opacity=".48128" stroke="#fff" stroke-miterlimit="10"/>
 </g>
</svg>
